<svg xmlns="http://www.w3.org/2000/svg" xmlns:xlink="http://www.w3.org/1999/xlink" viewBox="0 0 401.81 371.34"><defs><style>.cls-1{fill:none;}.cls-2{isolation:isolate;}.cls-3{clip-path:url(#clip-path);}.cls-4{fill:#ccc;}.cls-5{opacity:0.8;mix-blend-mode:multiply;}.cls-6{fill:#fff;}.cls-7{fill:#fefefe;}.cls-8{fill:#fdfdfd;}.cls-9{fill:#fbfbfb;}.cls-10{fill:#fafafa;}.cls-11{fill:#f9f9f9;}.cls-12{fill:#f8f8f8;}.cls-13{fill:#f6f6f6;}.cls-14{fill:#f5f5f5;}.cls-15{fill:#f4f4f4;}.cls-16{fill:#f3f3f3;}.cls-17{fill:#f1f1f1;}.cls-18{fill:#f0f0f0;}.cls-19{fill:#efefef;}.cls-20{fill:#eee;}.cls-21{fill:#ececec;}.cls-22{fill:#ebebeb;}.cls-23{fill:#eaeaea;}.cls-24{fill:#e9e9e9;}.cls-25{fill:#e7e7e7;}.cls-26{fill:#e6e6e6;}.cls-27{fill:#e5e5e5;}.cls-28{fill:#e4e4e4;}.cls-29{fill:#e2e2e2;}.cls-30{fill:#e1e1e1;}.cls-31{fill:#e0e0e0;}.cls-32{fill:#dfdfdf;}.cls-33{fill:#ddd;}.cls-34{fill:#dcdcdc;}.cls-35{fill:#dbdbdb;}.cls-36{fill:#dadada;}.cls-37{fill:#d8d8d8;}.cls-38{fill:#d7d7d7;}.cls-39{fill:#d6d6d6;}.cls-40{fill:#d5d5d5;}.cls-41{fill:#d3d3d3;}.cls-42{fill:#d2d2d2;}.cls-43{fill:#d1d1d1;}.cls-44{fill:#d0d0d0;}.cls-45{fill:#cecece;}.cls-46{fill:#cdcdcd;}.cls-47{fill:url(#linear-gradient);}</style><clipPath id="clip-path" transform="translate(104.51 54.61)"><rect class="cls-1" x="-63.4" width="496.35" height="288"/></clipPath><linearGradient id="linear-gradient" x1="27.65" y1="145.61" x2="141.12" y2="145.61" gradientUnits="userSpaceOnUse"><stop offset="0" stop-color="#2bbcdf"/><stop offset="1" stop-color="#0d59b3"/></linearGradient></defs><title>26362 [Converted]</title><g class="cls-2"><g id="Layer_1" data-name="Layer 1"><g class="cls-3"><polygon class="cls-4" points="104.07 164.93 242.74 21.69 242.03 20.99 104.07 163.5 104.07 164.93"/><polygon class="cls-4" points="10.25 260.42 0 271.01 0.7 271.71 10.25 261.84 10.25 260.42"/><polygon class="cls-4" points="172.55 342.33 104.07 238.54 104.07 240.34 171.37 342.33 172.55 342.33"/><polygon class="cls-4" points="192.57 342.33 136.51 0 135.54 0.16 191.57 342.33 192.57 342.33"/><polygon class="cls-4" points="363.69 47.59 401.81 17.48 401.2 16.7 362.08 47.59 363.69 47.59"/><polygon class="cls-4" points="274.08 117.09 104.07 251.36 104.07 252.63 274.08 118.36 274.08 117.09"/><polygon class="cls-4" points="269.53 342.33 104.07 165.61 104.07 167.06 268.17 342.33 269.53 342.33"/><polygon class="cls-4" points="273.67 338.61 104.07 293.25 104.07 294.28 273.67 339.64 273.67 338.61"/><polygon class="cls-4" points="342.09 356.91 342.09 357.94 392.17 371.34 392.42 370.37 342.09 356.91"/><polygon class="cls-4" points="274.08 86.94 104.07 123.02 104.07 124.04 274.08 87.96 274.08 86.94"/><polygon class="cls-4" points="10.25 142.93 4.44 144.16 4.64 145.14 10.25 143.95 10.25 142.93"/><ellipse class="cls-4" cx="129.57" cy="193.57" rx="6.73" ry="6.84"/><path class="cls-4" d="M56.89,78.92a3.53,3.53,0,1,1-3.53-3.58A3.55,3.55,0,0,1,56.89,78.92Z" transform="translate(104.51 54.61)"/><path class="cls-4" d="M129.45,97.87a3.88,3.88,0,1,1-3.88-3.94A3.92,3.92,0,0,1,129.45,97.87Z" transform="translate(104.51 54.61)"/><path class="cls-4" d="M10.37,193.09A5.41,5.41,0,0,1,5,198.53a5.45,5.45,0,0,1,0-10.89A5.41,5.41,0,0,1,10.37,193.09Z" transform="translate(104.51 54.61)"/><ellipse class="cls-4" cx="175.8" cy="242.94" rx="4.68" ry="4.75"/><path class="cls-4" d="M27.57,83.27a2.52,2.52,0,1,1-2.52-2.55A2.54,2.54,0,0,1,27.57,83.27Z" transform="translate(104.51 54.61)"/><ellipse class="cls-4" cx="149.96" cy="85.2" rx="1.88" ry="1.91"/><path class="cls-4" d="M46.68,250.8a3.6,3.6,0,1,1-3.6-3.65A3.62,3.62,0,0,1,46.68,250.8Z" transform="translate(104.51 54.61)"/><path class="cls-4" d="M82.46,240.58a2.62,2.62,0,1,1-2.62-2.66A2.64,2.64,0,0,1,82.46,240.58Z" transform="translate(104.51 54.61)"/><ellipse class="cls-4" cx="205.74" cy="274.6" rx="5.94" ry="6.03"/><ellipse class="cls-4" cx="235.2" cy="95.7" rx="4.95" ry="5.02"/><path class="cls-4" d="M96.65,11.66a2.28,2.28,0,1,1-2.28-2.31A2.29,2.29,0,0,1,96.65,11.66Z" transform="translate(104.51 54.61)"/></g><g class="cls-5"><path class="cls-6" d="M115.44,111.91a1.14,1.14,0,0,0-1.73-.86c-2.11,1.27-6.67,3.18-15,3.18a67.63,67.63,0,0,1-9.57-.73c-17.4-2.46-26.5-9.89-29.07-12.32a1.12,1.12,0,0,0-1.54,0C56,103.61,46.86,111,29.46,113.5a67.76,67.76,0,0,1-9.58.73c-8.32,0-12.88-1.91-15-3.18a1.14,1.14,0,0,0-1.73.86c-1.31,12.34-5.48,80.22,55.53,119.46a1.18,1.18,0,0,0,1.25,0C120.93,192.13,116.76,124.25,115.44,111.91Z" transform="translate(104.51 54.61)"/><path class="cls-7" d="M116.07,111.51a1.14,1.14,0,0,0-1.73-.85c-2.11,1.26-6.67,3.17-15,3.17a67.5,67.5,0,0,1-9.56-.73c-17.38-2.45-26.47-9.88-29-12.31a1.13,1.13,0,0,0-1.55,0c-2.56,2.43-11.65,9.86-29,12.31a67.74,67.74,0,0,1-9.57.73c-8.31,0-12.87-1.91-15-3.17a1.14,1.14,0,0,0-1.73.85C2.6,123.84-1.57,191.66,59.37,230.87a1.18,1.18,0,0,0,1.25,0C120.47,192.37,117.31,123.14,116.07,111.51Z" transform="translate(104.51 54.61)"/><path class="cls-8" d="M116.7,111.12a1.14,1.14,0,0,0-1.73-.86c-2.11,1.26-6.66,3.17-15,3.17a67.5,67.5,0,0,1-9.56-.73c-17.35-2.45-26.43-9.87-29-12.3a1.12,1.12,0,0,0-1.54,0c-2.57,2.43-11.65,9.85-29,12.3a67.5,67.5,0,0,1-9.56.73c-8.3,0-12.86-1.91-15-3.17a1.14,1.14,0,0,0-1.73.86C3.36,123.43-.8,191.19,60.06,230.36a1.14,1.14,0,0,0,1.25,0C120,192.61,117.86,122,116.7,111.12Z" transform="translate(104.51 54.61)"/><path class="cls-9" d="M117.32,110.72a1.13,1.13,0,0,0-1.72-.86c-2.11,1.26-6.66,3.17-14.95,3.17a68.6,68.6,0,0,1-9.54-.72c-17.33-2.46-26.4-9.87-29-12.3a1.12,1.12,0,0,0-1.54,0c-2.56,2.43-11.63,9.84-29,12.3a68.6,68.6,0,0,1-9.54.72c-8.29,0-12.84-1.91-14.95-3.17a1.13,1.13,0,0,0-1.72.86C4.12,123,0,190.72,60.76,229.86a1.16,1.16,0,0,0,1.24,0C119.54,192.84,118.41,120.91,117.32,110.72Z" transform="translate(104.51 54.61)"/><path class="cls-10" d="M118,110.32a1.13,1.13,0,0,0-1.72-.85c-2.1,1.26-6.65,3.16-14.93,3.16a68.46,68.46,0,0,1-9.53-.72c-17.32-2.45-26.37-9.86-28.93-12.29a1.14,1.14,0,0,0-1.54,0c-2.55,2.43-11.61,9.84-28.93,12.29a68.46,68.46,0,0,1-9.53.72c-8.28,0-12.83-1.9-14.93-3.17a1.14,1.14,0,0,0-1.72.86c-1.31,12.3-5.46,79.94,55.26,119a1.18,1.18,0,0,0,1.25,0C119.07,193.08,119,119.79,118,110.32Z" transform="translate(104.51 54.61)"/><path class="cls-11" d="M118.58,109.92a1.13,1.13,0,0,0-1.72-.85c-2.1,1.26-6.64,3.16-14.92,3.16a68.44,68.44,0,0,1-9.52-.72c-17.29-2.45-26.34-9.85-28.89-12.27a1.11,1.11,0,0,0-1.53,0c-2.56,2.42-11.6,9.82-28.9,12.27a68.33,68.33,0,0,1-9.52.72c-8.27,0-12.81-1.9-14.91-3.16a1.13,1.13,0,0,0-1.72.85c-1.31,12.29-5.46,79.87,55.19,118.94a1.18,1.18,0,0,0,1.25,0C118.61,193.32,119.51,118.68,118.58,109.92Z" transform="translate(104.51 54.61)"/><path class="cls-12" d="M119.2,109.52a1.13,1.13,0,0,0-1.72-.85c-2.09,1.26-6.63,3.16-14.89,3.16a68.2,68.2,0,0,1-9.51-.72c-17.27-2.45-26.31-9.84-28.86-12.26a1.11,1.11,0,0,0-1.53,0c-2.55,2.42-11.59,9.81-28.86,12.26a68.31,68.31,0,0,1-9.51.72c-8.26,0-12.8-1.9-14.9-3.16a1.13,1.13,0,0,0-1.71.85C6.4,121.8,2.26,189.32,62.84,228.35a1.12,1.12,0,0,0,1.24,0C118.14,193.56,120.06,117.56,119.2,109.52Z" transform="translate(104.51 54.61)"/><path class="cls-13" d="M119.83,109.13a1.14,1.14,0,0,0-1.72-.86c-2.09,1.26-6.62,3.16-14.87,3.16a68.07,68.07,0,0,1-9.5-.72c-17.25-2.45-26.28-9.84-28.83-12.25a1.11,1.11,0,0,0-1.53,0c-2.54,2.41-11.57,9.8-28.83,12.25a67.83,67.83,0,0,1-9.49.72c-8.26,0-12.78-1.9-14.88-3.16a1.14,1.14,0,0,0-1.72.86C7.16,121.39,3,188.85,63.53,227.85a1.16,1.16,0,0,0,1.24,0C117.68,193.8,120.61,116.45,119.83,109.13Z" transform="translate(104.51 54.61)"/><path class="cls-14" d="M120.45,108.73a1.12,1.12,0,0,0-1.71-.85c-2.09,1.25-6.61,3.15-14.86,3.15a67.8,67.8,0,0,1-9.48-.72c-17.24-2.44-26.25-9.83-28.79-12.24a1.11,1.11,0,0,0-1.53,0c-2.55,2.41-11.56,9.8-28.8,12.24a67.8,67.8,0,0,1-9.48.72c-8.25,0-12.77-1.9-14.86-3.15a1.13,1.13,0,0,0-1.72.85c-1.3,12.25-5.43,79.65,55,118.62a1.16,1.16,0,0,0,1.24,0C117.22,194,121.16,115.33,120.45,108.73Z" transform="translate(104.51 54.61)"/><path class="cls-15" d="M121.08,108.33a1.13,1.13,0,0,0-1.71-.85c-2.09,1.25-6.61,3.15-14.84,3.15a67.8,67.8,0,0,1-9.48-.72c-17.21-2.44-26.21-9.82-28.75-12.23a1.11,1.11,0,0,0-1.53,0c-2.54,2.41-11.55,9.79-28.76,12.23a67.67,67.67,0,0,1-9.47.72c-8.24,0-12.76-1.9-14.85-3.15a1.13,1.13,0,0,0-1.71.85c-1.3,12.24-5.43,79.58,54.94,118.52a1.14,1.14,0,0,0,1.23,0C116.75,194.27,121.71,114.22,121.08,108.33Z" transform="translate(104.51 54.61)"/><path class="cls-16" d="M121.71,107.93a1.13,1.13,0,0,0-1.71-.85c-2.09,1.26-6.6,3.15-14.83,3.15a67.54,67.54,0,0,1-9.46-.72C78.52,107.07,69.53,99.7,67,97.29a1.13,1.13,0,0,0-1.53,0c-2.53,2.41-11.53,9.78-28.72,12.22a67.67,67.67,0,0,1-9.47.72c-8.22,0-12.73-1.89-14.82-3.15a1.13,1.13,0,0,0-1.71.85c-1.3,12.23-5.42,79.52,54.87,118.41a1.16,1.16,0,0,0,1.24,0C116.29,194.51,122.26,113.1,121.71,107.93Z" transform="translate(104.51 54.61)"/><path class="cls-17" d="M122.33,107.53a1.12,1.12,0,0,0-1.7-.85c-2.09,1.26-6.6,3.15-14.81,3.15a67.3,67.3,0,0,1-9.45-.72c-17.17-2.44-26.15-9.8-28.69-12.21a1.11,1.11,0,0,0-1.52,0c-2.54,2.41-11.52,9.77-28.69,12.21a67.54,67.54,0,0,1-9.46.72c-8.21,0-12.72-1.89-14.8-3.15a1.13,1.13,0,0,0-1.71.85C10.2,119.75,6.09,187,66.3,225.84a1.16,1.16,0,0,0,1.24,0C115.82,194.75,122.81,112,122.33,107.53Z" transform="translate(104.51 54.61)"/><path class="cls-18" d="M123,107.14a1.12,1.12,0,0,0-1.71-.85c-2.08,1.25-6.58,3.14-14.78,3.14a67.06,67.06,0,0,1-9.44-.72c-17.15-2.43-26.13-9.79-28.66-12.19a1.09,1.09,0,0,0-1.52,0c-2.53,2.4-11.5,9.76-28.66,12.19a67.06,67.06,0,0,1-9.44.72c-8.2,0-12.7-1.89-14.79-3.14a1.12,1.12,0,0,0-1.7.85C11,119.35,6.85,186.51,67,225.34a1.16,1.16,0,0,0,1.24,0C115.36,195,123.36,110.87,123,107.14Z" transform="translate(104.51 54.61)"/><path class="cls-19" d="M123.59,106.74a1.13,1.13,0,0,0-1.71-.85c-2.08,1.25-6.57,3.14-14.77,3.14a67,67,0,0,1-9.43-.72c-17.13-2.43-26.09-9.78-28.62-12.18a1.09,1.09,0,0,0-1.52,0c-2.52,2.4-11.49,9.75-28.62,12.18a67,67,0,0,1-9.43.72c-8.19,0-12.69-1.89-14.77-3.14a1.12,1.12,0,0,0-1.7.85c-1.29,12.2-5.4,79.3,54.67,118.09a1.1,1.1,0,0,0,1.23,0C114.89,195.23,123.91,109.75,123.59,106.74Z" transform="translate(104.51 54.61)"/><path class="cls-20" d="M124.21,106.34a1.12,1.12,0,0,0-1.7-.85c-2.08,1.25-6.57,3.14-14.75,3.14a66.91,66.91,0,0,1-9.42-.72c-17.11-2.43-26.06-9.77-28.58-12.17a1.09,1.09,0,0,0-1.52,0c-2.53,2.4-11.48,9.74-28.59,12.17a66.91,66.91,0,0,1-9.42.72c-8.18,0-12.68-1.89-14.75-3.14a1.12,1.12,0,0,0-1.7.85c-1.29,12.19-5.4,79.23,54.6,118a1.14,1.14,0,0,0,1.23,0C114.43,195.46,124.46,108.64,124.21,106.34Z" transform="translate(104.51 54.61)"/><path class="cls-21" d="M124.84,105.94a1.12,1.12,0,0,0-1.7-.84c-2.08,1.24-6.56,3.13-14.74,3.13a66.65,66.65,0,0,1-9.4-.72c-17.09-2.42-26-9.76-28.55-12.16a1.09,1.09,0,0,0-1.52,0c-2.52,2.4-11.46,9.74-28.55,12.16a66.88,66.88,0,0,1-9.41.72c-8.18,0-12.66-1.89-14.74-3.13a1.12,1.12,0,0,0-1.7.84c-1.28,12.18-5.38,79.17,54.54,117.89a1.14,1.14,0,0,0,1.23,0C114,195.7,125,107.52,124.84,105.94Z" transform="translate(104.51 54.61)"/><path class="cls-22" d="M125.46,105.54a1.11,1.11,0,0,0-1.69-.84c-2.08,1.25-6.55,3.13-14.72,3.13a66.41,66.41,0,0,1-9.39-.72c-17.07-2.42-26-9.75-28.52-12.15a1.11,1.11,0,0,0-1.52,0c-2.52,2.4-11.45,9.73-28.52,12.15a66.51,66.51,0,0,1-9.39.72c-8.17,0-12.65-1.88-14.72-3.13a1.12,1.12,0,0,0-1.7.84C14,117.71,9.91,184.64,69.77,223.33a1.14,1.14,0,0,0,1.23,0C113.5,195.94,125.56,106.41,125.46,105.54Z" transform="translate(104.51 54.61)"/><path class="cls-23" d="M126.09,105.15a1.12,1.12,0,0,0-1.69-.85c-2.07,1.25-6.55,3.13-14.7,3.13a66.51,66.51,0,0,1-9.39-.72c-17-2.42-26-9.74-28.48-12.14a1.1,1.1,0,0,0-1.51,0c-2.52,2.4-11.44,9.72-28.49,12.14a66.38,66.38,0,0,1-9.38.72c-8.16,0-12.63-1.88-14.7-3.13a1.12,1.12,0,0,0-1.7.85c-1.28,12.15-5.37,79,54.41,117.67a1.14,1.14,0,0,0,1.23,0C113,196.18,126.11,105.29,126.09,105.15Z" transform="translate(104.51 54.61)"/><path class="cls-24" d="M126.72,104.75a1.12,1.12,0,0,0-1.7-.85c-2.06,1.25-6.53,3.13-14.68,3.13a66.25,66.25,0,0,1-9.37-.72c-17-2.42-25.93-9.73-28.45-12.13a1.1,1.1,0,0,0-1.51,0c-2.51,2.4-11.42,9.71-28.45,12.13a66.25,66.25,0,0,1-9.37.72c-8.15,0-12.62-1.88-14.69-3.13a1.12,1.12,0,0,0-1.69.85c-1.28,12.14-5.37,78.95,54.34,117.57a1.14,1.14,0,0,0,1.23,0C112.57,196.42,126.67,104.18,126.72,104.75Z" transform="translate(104.51 54.61)"/><path class="cls-25" d="M127.34,104.35a1.11,1.11,0,0,0-1.69-.84c-2.06,1.24-6.53,3.12-14.66,3.12a67.38,67.38,0,0,1-9.36-.71c-17-2.42-25.91-9.73-28.42-12.12a1.08,1.08,0,0,0-1.51,0c-2.51,2.39-11.4,9.7-28.41,12.12a67.62,67.62,0,0,1-9.37.71c-8.13,0-12.6-1.88-14.66-3.12a1.11,1.11,0,0,0-1.69.84c-1.28,12.13-5.36,78.88,54.28,117.47a1.12,1.12,0,0,0,1.22,0C112.11,196.65,127.22,103.06,127.34,104.35Z" transform="translate(104.51 54.61)"/><path class="cls-26" d="M128,104a1.11,1.11,0,0,0-1.69-.84c-2.06,1.24-6.52,3.12-14.65,3.12a67.46,67.46,0,0,1-9.35-.71c-17-2.42-25.87-9.72-28.37-12.11a1.08,1.08,0,0,0-1.51,0C69.89,95.8,61,103.1,44,105.52a67.24,67.24,0,0,1-9.35.71c-8.12,0-12.58-1.88-14.64-3.12a1.11,1.11,0,0,0-1.69.84C17.05,116.07,13,182.76,72.54,221.32a1.12,1.12,0,0,0,1.22,0C111.65,196.89,127.77,102,128,104Z" transform="translate(104.51 54.61)"/><path class="cls-27" d="M128.6,103.55a1.11,1.11,0,0,0-1.69-.84c-2.06,1.24-6.51,3.12-14.63,3.12a67.22,67.22,0,0,1-9.34-.71C86,102.7,77.1,95.4,74.6,93a1.1,1.1,0,0,0-1.51,0c-2.5,2.38-11.38,9.68-28.35,12.1a67.11,67.11,0,0,1-9.34.71c-8.11,0-12.57-1.88-14.63-3.12a1.1,1.1,0,0,0-1.68.84c-1.28,12.12-5.35,78.75,54.14,117.26a1.12,1.12,0,0,0,1.22,0C111.18,197.13,128.32,100.83,128.6,103.55Z" transform="translate(104.51 54.61)"/><path class="cls-28" d="M129.22,103.16a1.11,1.11,0,0,0-1.68-.85c-2.06,1.25-6.51,3.12-14.61,3.12a67,67,0,0,1-9.33-.71C86.65,102.31,77.79,95,75.29,92.63a1.09,1.09,0,0,0-1.5,0c-2.51,2.38-11.37,9.68-28.32,12.09a67,67,0,0,1-9.33.71c-8.1,0-12.55-1.87-14.61-3.12a1.11,1.11,0,0,0-1.68.85c-1.28,12.1-5.35,78.67,54.08,117.15a1.12,1.12,0,0,0,1.22,0C110.72,197.37,128.87,99.72,129.22,103.16Z" transform="translate(104.51 54.61)"/><path class="cls-29" d="M129.85,102.76a1.1,1.1,0,0,0-1.68-.84c-2.06,1.24-6.5,3.11-14.6,3.11a66.71,66.71,0,0,1-9.31-.71C87.33,101.91,78.48,94.62,76,92.24a1.09,1.09,0,0,0-1.5,0c-2.5,2.38-11.36,9.67-28.28,12.08a66.85,66.85,0,0,1-9.32.71c-8.1,0-12.54-1.87-14.59-3.11a1.11,1.11,0,0,0-1.69.84c-1.27,12.09-5.33,78.6,54,117.05a1.12,1.12,0,0,0,1.22,0C110.25,197.61,129.42,98.6,129.85,102.76Z" transform="translate(104.51 54.61)"/><path class="cls-30" d="M130.47,102.36a1.1,1.1,0,0,0-1.68-.84c-2,1.24-6.49,3.11-14.57,3.11a66.82,66.82,0,0,1-9.31-.71C88,101.51,79.17,94.23,76.67,91.85a1.09,1.09,0,0,0-1.5,0c-2.49,2.38-11.34,9.66-28.25,12.07a66.58,66.58,0,0,1-9.3.71c-8.09,0-12.52-1.87-14.58-3.11a1.11,1.11,0,0,0-1.68.84c-1.27,12.08-5.33,78.53,54,117a1.16,1.16,0,0,0,1.22,0C109.79,197.85,130,97.49,130.47,102.36Z" transform="translate(104.51 54.61)"/><path class="cls-31" d="M131.1,102a1.11,1.11,0,0,0-1.68-.84c-2,1.24-6.48,3.11-14.56,3.11a66.45,66.45,0,0,1-9.29-.71c-16.88-2.41-25.71-9.68-28.21-12.06a1.08,1.08,0,0,0-1.49,0c-2.5,2.38-11.33,9.65-28.22,12.06a66.45,66.45,0,0,1-9.29.71c-8.08,0-12.51-1.87-14.56-3.11a1.11,1.11,0,0,0-1.68.84C20.85,114,16.8,180.42,76,218.8a1.11,1.11,0,0,0,1.21,0C109.32,198.08,130.52,96.37,131.1,102Z" transform="translate(104.51 54.61)"/><path class="cls-32" d="M131.73,101.56a1.1,1.1,0,0,0-1.68-.83c-2.05,1.23-6.47,3.1-14.54,3.1a66.21,66.21,0,0,1-9.28-.71c-16.87-2.4-25.69-9.67-28.18-12a1.06,1.06,0,0,0-1.49,0c-2.49,2.37-11.31,9.64-28.18,12a66.43,66.43,0,0,1-9.28.71c-8.07,0-12.5-1.87-14.54-3.1a1.1,1.1,0,0,0-1.68.83C21.61,113.62,17.56,180,76.7,218.3a1.11,1.11,0,0,0,1.21,0C108.86,198.32,131.07,95.26,131.73,101.56Z" transform="translate(104.51 54.61)"/><path class="cls-33" d="M132.35,101.17a1.1,1.1,0,0,0-1.67-.84c-2.05,1.23-6.47,3.1-14.52,3.1a66.08,66.08,0,0,1-9.27-.71c-16.85-2.4-25.66-9.66-28.14-12a1.09,1.09,0,0,0-1.5,0c-2.48,2.37-11.3,9.63-28.14,12a66.19,66.19,0,0,1-9.27.71c-8.06,0-12.48-1.87-14.53-3.1a1.1,1.1,0,0,0-1.67.84c-1.27,12-5.31,78.32,53.75,116.63a1.12,1.12,0,0,0,1.22,0C108.4,198.56,131.62,94.14,132.35,101.17Z" transform="translate(104.51 54.61)"/><path class="cls-34" d="M133,100.77a1.1,1.1,0,0,0-1.67-.84c-2.05,1.24-6.46,3.1-14.51,3.1a66.06,66.06,0,0,1-9.26-.71c-16.82-2.4-25.62-9.65-28.1-12a1.08,1.08,0,0,0-1.49,0c-2.49,2.37-11.29,9.62-28.11,12a66.06,66.06,0,0,1-9.26.71c-8,0-12.47-1.87-14.51-3.1a1.1,1.1,0,0,0-1.67.84c-1.27,12-5.31,78.25,53.69,116.53a1.15,1.15,0,0,0,1.21,0C107.93,198.8,132.17,93,133,100.77Z" transform="translate(104.51 54.61)"/><path class="cls-35" d="M133.61,100.37a1.1,1.1,0,0,0-1.67-.84c-2,1.24-6.45,3.1-14.49,3.1a65.82,65.82,0,0,1-9.25-.71c-16.8-2.4-25.59-9.64-28.07-12a1.08,1.08,0,0,0-1.49,0c-2.48,2.37-11.27,9.61-28.08,12a65.82,65.82,0,0,1-9.25.71c-8,0-12.44-1.86-14.48-3.1a1.1,1.1,0,0,0-1.67.84c-1.27,12-5.3,78.18,53.62,116.42a1.11,1.11,0,0,0,1.21,0C107.47,199,132.72,91.91,133.61,100.37Z" transform="translate(104.51 54.61)"/><path class="cls-36" d="M134.23,100a1.1,1.1,0,0,0-1.67-.83c-2,1.23-6.44,3.09-14.47,3.09a65.66,65.66,0,0,1-9.23-.71c-16.78-2.39-25.56-9.63-28-12a1.08,1.08,0,0,0-1.49,0c-2.48,2.37-11.26,9.61-28,12a65.69,65.69,0,0,1-9.24.71c-8,0-12.43-1.86-14.47-3.09a1.1,1.1,0,0,0-1.67.83c-1.26,12-5.29,78.11,53.56,116.32a1.11,1.11,0,0,0,1.21,0C107,199.27,133.27,90.8,134.23,100Z" transform="translate(104.51 54.61)"/><path class="cls-37" d="M134.86,99.57a1.1,1.1,0,0,0-1.67-.83c-2,1.23-6.43,3.09-14.45,3.09a65.66,65.66,0,0,1-9.23-.71c-16.76-2.39-25.52-9.62-28-12a1.06,1.06,0,0,0-1.48,0c-2.48,2.37-11.25,9.6-28,12a65.66,65.66,0,0,1-9.23.71c-8,0-12.42-1.86-14.45-3.09a1.1,1.1,0,0,0-1.67.83c-1.26,12-5.28,78,53.5,116.22a1.09,1.09,0,0,0,1.2,0C106.54,199.51,133.82,89.68,134.86,99.57Z" transform="translate(104.51 54.61)"/><path class="cls-38" d="M135.48,99.18a1.09,1.09,0,0,0-1.66-.84c-2,1.23-6.43,3.09-14.43,3.09a65.42,65.42,0,0,1-9.22-.71c-16.74-2.39-25.49-9.61-28-12a1.06,1.06,0,0,0-1.48,0c-2.47,2.37-11.23,9.59-28,12a65.42,65.42,0,0,1-9.22.71c-8,0-12.4-1.86-14.43-3.09a1.1,1.1,0,0,0-1.67.84c-1.26,12-5.28,78,53.43,116.11a1.13,1.13,0,0,0,1.2,0C106.07,199.75,134.37,88.56,135.48,99.18Z" transform="translate(104.51 54.61)"/><path class="cls-39" d="M136.11,98.78a1.09,1.09,0,0,0-1.66-.83C132.42,99.17,128,101,120,101a65.16,65.16,0,0,1-9.2-.71c-16.72-2.38-25.47-9.6-27.93-12a1.08,1.08,0,0,0-1.49,0c-2.47,2.36-11.21,9.58-27.94,12a65.16,65.16,0,0,1-9.2.71c-8,0-12.39-1.86-14.42-3.09a1.1,1.1,0,0,0-1.66.84c-1.26,12-5.27,77.9,53.36,116a1.11,1.11,0,0,0,1.21,0C105.61,200,134.93,87.45,136.11,98.78Z" transform="translate(104.51 54.61)"/><path class="cls-40" d="M136.74,98.38a1.09,1.09,0,0,0-1.66-.83c-2,1.23-6.41,3.08-14.4,3.08a65,65,0,0,1-9.19-.71c-16.7-2.38-25.44-9.59-27.9-12a1.06,1.06,0,0,0-1.48,0c-2.47,2.36-11.21,9.57-27.91,12a65,65,0,0,1-9.19.71c-8,0-12.37-1.86-14.4-3.08a1.09,1.09,0,0,0-1.66.83c-1.26,12-5.27,77.83,53.3,115.9a1.09,1.09,0,0,0,1.2,0C105.15,200.23,135.48,86.33,136.74,98.38Z" transform="translate(104.51 54.61)"/><path class="cls-41" d="M137.36,98a1.09,1.09,0,0,0-1.66-.83c-2,1.23-6.4,3.08-14.38,3.08a66.38,66.38,0,0,1-9.18-.7c-16.67-2.39-25.4-9.6-27.86-12a1.06,1.06,0,0,0-1.48,0c-2.46,2.35-11.19,9.56-27.87,12a66.27,66.27,0,0,1-9.18.7c-8,0-12.36-1.85-14.38-3.08a1.09,1.09,0,0,0-1.66.83c-1.26,12-5.26,77.76,53.23,115.8a1.13,1.13,0,0,0,1.2,0C104.68,200.47,136,85.22,137.36,98Z" transform="translate(104.51 54.61)"/><path class="cls-42" d="M138,97.58a1.1,1.1,0,0,0-1.66-.83c-2,1.23-6.39,3.08-14.36,3.08a66.13,66.13,0,0,1-9.17-.7C96.14,96.74,87.43,89.54,85,87.19a1.06,1.06,0,0,0-1.48,0C81,89.54,72.32,96.74,55.66,99.13a66.25,66.25,0,0,1-9.17.7c-8,0-12.34-1.85-14.37-3.08a1.08,1.08,0,0,0-1.65.83c-1.26,12-5.26,77.69,53.16,115.69a1.09,1.09,0,0,0,1.2,0C104.22,200.7,136.58,84.1,138,97.58Z" transform="translate(104.51 54.61)"/><path class="cls-43" d="M138.62,97.19a1.09,1.09,0,0,0-1.66-.83c-2,1.22-6.38,3.07-14.34,3.07a66,66,0,0,1-9.16-.7c-16.64-2.38-25.34-9.58-27.8-11.93a1.05,1.05,0,0,0-1.47,0C81.73,89.15,73,96.35,56.38,98.73a65.76,65.76,0,0,1-9.15.7c-8,0-12.33-1.85-14.35-3.07a1.08,1.08,0,0,0-1.65.83C30,109.12,26,174.8,84.33,212.77a1.07,1.07,0,0,0,1.19,0C103.75,200.94,137.13,83,138.62,97.19Z" transform="translate(104.51 54.61)"/><path class="cls-44" d="M139.24,96.79a1.08,1.08,0,0,0-1.65-.83c-2,1.22-6.38,3.07-14.33,3.07a65.63,65.63,0,0,1-9.14-.7C97.5,96,88.81,88.76,86.35,86.41a1.07,1.07,0,0,0-1.47,0C82.43,88.76,73.73,96,57.11,98.33A65.76,65.76,0,0,1,48,99C40,99,35.65,97.18,33.64,96a1.09,1.09,0,0,0-1.66.83c-1.25,11.93-5.24,77.55,53,115.48a1.07,1.07,0,0,0,1.19,0C103.29,201.18,137.68,81.87,139.24,96.79Z" transform="translate(104.51 54.61)"/><path class="cls-45" d="M139.87,96.39a1.08,1.08,0,0,0-1.65-.83c-2,1.22-6.37,3.07-14.31,3.07a65.63,65.63,0,0,1-9.14-.7C98.18,95.55,89.49,88.37,87,86a1.07,1.07,0,0,0-1.47,0c-2.45,2.35-11.13,9.53-27.73,11.91a65.63,65.63,0,0,1-9.14.7c-7.94,0-12.29-1.85-14.31-3.07a1.08,1.08,0,0,0-1.65.83c-1.25,11.92-5.23,77.48,53,115.38a1.13,1.13,0,0,0,1.2,0C102.83,201.42,138.23,80.76,139.87,96.39Z" transform="translate(104.51 54.61)"/><path class="cls-46" d="M140.49,96a1.08,1.08,0,0,0-1.64-.83c-2,1.23-6.37,3.07-14.3,3.07a65.47,65.47,0,0,1-9.12-.7C98.85,95.16,90.18,88,87.74,85.64a1.05,1.05,0,0,0-1.47,0C83.82,88,75.15,95.16,58.57,97.53a65.6,65.6,0,0,1-9.13.7c-7.93,0-12.28-1.85-14.29-3.07A1.09,1.09,0,0,0,33.5,96c-1.25,11.91-5.23,77.41,52.9,115.27a1.09,1.09,0,0,0,1.2,0C102.36,201.66,138.78,79.64,140.49,96Z" transform="translate(104.51 54.61)"/><path class="cls-4" d="M141.12,95.59a1.08,1.08,0,0,0-1.65-.82c-2,1.22-6.35,3.06-14.27,3.06a65.23,65.23,0,0,1-9.11-.7c-16.56-2.37-25.22-9.54-27.66-11.88a1.05,1.05,0,0,0-1.47,0c-2.45,2.34-11.11,9.51-27.67,11.88a65.23,65.23,0,0,1-9.11.7c-7.92,0-12.26-1.84-14.27-3.06a1.08,1.08,0,0,0-1.65.82C33,107.49,29,172.93,87.1,210.76a1.07,1.07,0,0,0,1.19,0C101.9,201.89,139.33,78.53,141.12,95.59Z" transform="translate(104.51 54.61)"/></g><path class="cls-47" d="M140.29,89.49s-4,4.27-16.49,4.27a67.87,67.87,0,0,1-9.58-.73c-20.91-3-29.83-13.1-29.83-13.1S75.46,90.07,54.55,93a67.87,67.87,0,0,1-9.58.73c-12.44,0-16.49-4.27-16.49-4.27S16.39,168.1,84.39,211.3C152.38,168.1,140.29,89.49,140.29,89.49Z" transform="translate(104.51 54.61)"/><polygon class="cls-6" points="227.59 185.63 203.28 185.63 203.28 160.95 184.62 160.95 184.62 185.63 160.31 185.63 160.31 204.58 184.62 204.58 184.62 229.26 203.28 229.26 203.28 204.58 227.59 204.58 227.59 185.63"/></g></g></svg>